<svg viewBox="0 0 16 16" xmlns="http://www.w3.org/2000/svg">
    <path
        d="M9.41334 7.48L8 8.89333L6.58 7.48L5.64 8.42L7.06 9.83333L5.64667 11.2467L6.58667 12.1867L8 10.7733L9.41334 12.1867L10.3533 11.2467L8.94 9.83333L10.3533 8.42L9.41334 7.48ZM10.3333 3.16667L9.66667 2.5H6.33334L5.66667 3.16667H3.33334V4.5H12.6667V3.16667H10.3333ZM4 13.1667C4 13.9 4.6 14.5 5.33334 14.5H10.6667C11.4 14.5 12 13.9 12 13.1667V5.16667H4V13.1667ZM5.33334 6.5H10.6667V13.1667H5.33334V6.5Z"
        fill="currentColor"
    />
</svg>
