<svg viewBox="0 0 16 16" xmlns="http://www.w3.org/2000/svg">
    <path
        d="M7.99987 1.49309C4.33321 1.49309 1.33321 4.49309 1.33321 8.15976C1.33321 11.8264 4.33321 14.8264 7.99987 14.8264C11.6665 14.8264 14.6665 11.8264 14.6665 8.15976C14.6665 4.49309 11.6665 1.49309 7.99987 1.49309ZM7.99987 13.4931C5.05987 13.4931 2.66654 11.0998 2.66654 8.15976C2.66654 5.21975 5.05987 2.82642 7.99987 2.82642C10.9399 2.82642 13.3332 5.21975 13.3332 8.15976C13.3332 11.0998 10.9399 13.4931 7.99987 13.4931ZM11.0599 5.21309L6.66654 9.60642L4.93987 7.88642L3.99987 8.82642L6.66654 11.4931L11.9999 6.15975L11.0599 5.21309Z"
        fill="currentColor"
    />
</svg>
